<?xml version="1.0" encoding="UTF-8"?>
<svg xmlns="http://www.w3.org/2000/svg" height="1500" width="1500">
   <g transform="translate(10, 600)">
      <g transform="translate(350, -300)">
         <polyline points="25,0 50,0 75,0 100,0 125,0 150,0 175,0 200,0 225,0 250,0 275,0 300,0 325,0"
                   stroke="blue"
                   stroke-width="2"
                   fill="none"/>
         <polyline points="25,0 50,0 75,0 100,-80 125,0 150,0 175,0 200,0 225,0 250,0 275,0 300,0 325,0"
                   stroke="magenta"
                   stroke-width="2"
                   fill="none"/>
         <polyline points="25,0 50,0 75,0 100,0 125,0 150,0 175,0 200,0 225,0 250,0 275,0 300,0 325,0"
                   stroke="green"
                   stroke-width="2"
                   fill="none"/>
         <polyline points="25,0 50,0 75,0 100,-20 125,0 150,0 175,0 200,0 225,0 250,0 275,0 300,0 325,0"
                   stroke="red"
                   stroke-width="2"
                   fill="none"/>
         <polyline points="25,0 50,0 75,0 100,0 125,0 150,0 175,0 200,0 225,0 250,0 275,0 300,0 325,0"
                   stroke="orange"
                   stroke-width="2"
                   fill="none"/>
         <line stroke="black"
               stroke-width="2"
               x1="0"
               y1="0"
               x2="325"
               y2="0"/>
         <text x="10" y="20">Jesuit</text>
      </g>
      <g transform="translate(700, 0)">
         <polyline points="25,0 50,0 75,0 100,0 125,0 150,0 175,0 200,0 225,0 250,0 275,-20 300,0 325,0"
                   stroke="blue"
                   stroke-width="2"
                   fill="none"/>
         <polyline points="25,0 50,0 75,0 100,0 125,0 150,0 175,-20 200,0 225,0 250,0 275,0 300,0 325,0"
                   stroke="magenta"
                   stroke-width="2"
                   fill="none"/>
         <polyline points="25,0 50,0 75,0 100,0 125,0 150,0 175,0 200,0 225,0 250,0 275,0 300,0 325,0"
                   stroke="green"
                   stroke-width="2"
                   fill="none"/>
         <polyline points="25,0 50,0 75,0 100,0 125,0 150,0 175,0 200,0 225,0 250,0 275,0 300,0 325,0"
                   stroke="red"
                   stroke-width="2"
                   fill="none"/>
         <polyline points="25,0 50,0 75,0 100,0 125,0 150,0 175,0 200,0 225,0 250,0 275,0 300,0 325,0"
                   stroke="orange"
                   stroke-width="2"
                   fill="none"/>
         <line stroke="black"
               stroke-width="2"
               x1="0"
               y1="0"
               x2="325"
               y2="0"/>
         <text x="10" y="20">dear</text>
      </g>
      <g transform="translate(0, -300)">
         <polyline points="25,0 50,0 75,0 100,0 125,0 150,0 175,0 200,0 225,0 250,0 275,0 300,0 325,0"
                   stroke="blue"
                   stroke-width="2"
                   fill="none"/>
         <polyline points="25,-20 50,0 75,0 100,-40 125,0 150,-40 175,-60 200,-20 225,-60 250,-20 275,-40 300,0 325,0"
                   stroke="magenta"
                   stroke-width="2"
                   fill="none"/>
         <polyline points="25,0 50,0 75,0 100,0 125,0 150,0 175,0 200,0 225,0 250,0 275,0 300,0 325,0"
                   stroke="green"
                   stroke-width="2"
                   fill="none"/>
         <polyline points="25,-40 50,-20 75,-60 100,-260 125,0 150,-20 175,0 200,-20 225,0 250,-40 275,-60 300,0 325,0"
                   stroke="red"
                   stroke-width="2"
                   fill="none"/>
         <polyline points="25,0 50,0 75,0 100,0 125,0 150,0 175,0 200,0 225,0 250,0 275,0 300,0 325,0"
                   stroke="orange"
                   stroke-width="2"
                   fill="none"/>
         <line stroke="black"
               stroke-width="2"
               x1="0"
               y1="0"
               x2="325"
               y2="0"/>
         <text x="10" y="20">decorum</text>
      </g>
      <g transform="translate(350, 0)">
         <polyline points="25,0 50,0 75,0 100,0 125,0 150,0 175,-20 200,-20 225,0 250,0 275,0 300,0 325,0"
                   stroke="blue"
                   stroke-width="2"
                   fill="none"/>
         <polyline points="25,0 50,-80 75,0 100,0 125,0 150,-20 175,-20 200,0 225,-40 250,-60 275,-80 300,0 325,-40"
                   stroke="magenta"
                   stroke-width="2"
                   fill="none"/>
         <polyline points="25,0 50,-100 75,0 100,0 125,0 150,0 175,0 200,0 225,0 250,0 275,0 300,0 325,0"
                   stroke="green"
                   stroke-width="2"
                   fill="none"/>
         <polyline points="25,-20 50,-20 75,0 100,-20 125,-40 150,-40 175,0 200,0 225,0 250,-120 275,-40 300,0 325,-20"
                   stroke="red"
                   stroke-width="2"
                   fill="none"/>
         <polyline points="25,0 50,0 75,0 100,0 125,0 150,0 175,0 200,0 225,0 250,0 275,0 300,-20 325,0"
                   stroke="orange"
                   stroke-width="2"
                   fill="none"/>
         <line stroke="black"
               stroke-width="2"
               x1="0"
               y1="0"
               x2="325"
               y2="0"/>
         <text x="10" y="20">enemy</text>
      </g>
      <g transform="translate(700, -300)">
         <polyline points="25,0 50,0 75,0 100,0 125,0 150,0 175,0 200,0 225,0 250,0 275,0 300,0 325,0"
                   stroke="blue"
                   stroke-width="2"
                   fill="none"/>
         <polyline points="25,0 50,0 75,-20 100,0 125,-20 150,-20 175,0 200,0 225,0 250,0 275,0 300,-80 325,0"
                   stroke="magenta"
                   stroke-width="2"
                   fill="none"/>
         <polyline points="25,0 50,0 75,0 100,0 125,0 150,0 175,0 200,0 225,0 250,0 275,0 300,0 325,0"
                   stroke="green"
                   stroke-width="2"
                   fill="none"/>
         <polyline points="25,0 50,0 75,0 100,-20 125,-20 150,0 175,0 200,0 225,0 250,0 275,0 300,0 325,0"
                   stroke="red"
                   stroke-width="2"
                   fill="none"/>
         <polyline points="25,0 50,0 75,0 100,0 125,0 150,0 175,0 200,0 225,0 250,0 275,0 300,0 325,0"
                   stroke="orange"
                   stroke-width="2"
                   fill="none"/>
         <line stroke="black"
               stroke-width="2"
               x1="0"
               y1="0"
               x2="325"
               y2="0"/>
         <text x="10" y="20">on my own</text>
      </g>
      <g transform="translate(0, 0)">
         <polyline points="25,0 50,0 75,0 100,0 125,0 150,0 175,-40 200,0 225,0 250,0 275,0 300,0 325,0"
                   stroke="blue"
                   stroke-width="2"
                   fill="none"/>
         <polyline points="25,0 50,-20 75,-20 100,0 125,0 150,-20 175,-40 200,-40 225,-20 250,-60 275,-40 300,0 325,-40"
                   stroke="magenta"
                   stroke-width="2"
                   fill="none"/>
         <polyline points="25,0 50,0 75,0 100,0 125,0 150,0 175,0 200,0 225,0 250,0 275,0 300,0 325,0"
                   stroke="green"
                   stroke-width="2"
                   fill="none"/>
         <polyline points="25,0 50,0 75,0 100,-20 125,0 150,0 175,0 200,0 225,0 250,-20 275,0 300,0 325,0"
                   stroke="red"
                   stroke-width="2"
                   fill="none"/>
         <polyline points="25,0 50,0 75,0 100,0 125,0 150,0 175,0 200,0 225,0 250,0 275,0 300,0 325,0"
                   stroke="orange"
                   stroke-width="2"
                   fill="none"/>
         <line stroke="black"
               stroke-width="2"
               x1="0"
               y1="0"
               x2="325"
               y2="0"/>
         <text x="10" y="20">scheme</text>
      </g>
   </g>
</svg>
